<mxfile host="app.diagrams.net" modified="2024-07-19T09:40:14.148Z" agent="Mozilla/5.0 (Windows NT 10.0; Win64; x64) AppleWebKit/537.36 (KHTML, like Gecko) Chrome/118.0.0.0 Safari/537.36 Edg/118.0.2088.76" version="24.6.2" etag="hVB95sxvf7xPJDp0sJmO" type="github">
  <diagram name="第 1 页" id="VuAKLbqz8bfO-5qg41F5">
    <mxGraphModel>
      <root>
        <mxCell id="0" />
        <mxCell id="1" parent="0" />
      </root>
    </mxGraphModel>
  </diagram>
</mxfile>
